<svg width="100" height="100" viewBox="0 0 100 100" fill="none" xmlns="http://www.w3.org/2000/svg">
<rect width="100" height="100" fill="#26A4E2"/>
<path d="M28.7202 59.1761V53.0909H57.3906V59.1761H46.7031V88H39.4077V59.1761H28.7202ZM74.4872 88H62.1122V53.0909H74.5895C78.1009 53.0909 81.1236 53.7898 83.6577 55.1875C86.1918 56.5739 88.1406 58.5682 89.5043 61.1705C90.8793 63.7727 91.5668 66.8864 91.5668 70.5114C91.5668 74.1477 90.8793 77.2727 89.5043 79.8864C88.1406 82.5 86.1804 84.5057 83.6236 85.9034C81.0781 87.3011 78.0327 88 74.4872 88ZM69.4929 81.6761H74.1804C76.3622 81.6761 78.1974 81.2898 79.6861 80.517C81.1861 79.733 82.3111 78.5227 83.0611 76.8864C83.8224 75.2386 84.2031 73.1136 84.2031 70.5114C84.2031 67.9318 83.8224 65.8239 83.0611 64.1875C82.3111 62.5511 81.1918 61.3466 79.7031 60.5739C78.2145 59.8011 76.3793 59.4148 74.1974 59.4148H69.4929V81.6761Z" fill="white"/>
</svg>
